CascadiaCode - Geometric Shapes.ufo
<glyph name="uni25A5" format="1">
  <advance width="1200"/>
  <unicode hex="25A5"/>
  <outline>
    <contour>
      <point x="75" y="1069" type="line"/>
      <point x="1125" y="1069" type="line"/>
      <point x="1125" y="19" type="line"/>
      <point x="75" y="19" type="line"/>
    </contour>
    <contour>
      <point x="225" y="919" type="line"/>
      <point x="225" y="169" type="line"/>
      <point x="975" y="169" type="line"/>
      <point x="975" y="919" type="line"/>
    </contour>
    <contour>
      <point x="675.213" y="1016" type="line"/>
      <point x="825.213" y="1016" type="line"/>
      <point x="825.213" y="72" type="line"/>
      <point x="675.213" y="72" type="line"/>
    </contour>
    <contour>
      <point x="375.213" y="1016" type="line"/>
      <point x="525.213" y="1016" type="line"/>
      <point x="525.213" y="72" type="line"/>
      <point x="375.213" y="72" type="line"/>
    </contour>
  </outline>
</glyph>
<glyph name="uni25A6" format="1">
  <advance width="1200"/>
  <unicode hex="25A6"/>
  <outline>
    <contour>
      <point x="75" y="1069" type="line"/>
      <point x="1125" y="1069" type="line"/>
      <point x="1125" y="19" type="line"/>
      <point x="75" y="19" type="line"/>
    </contour>
    <contour>
      <point x="225" y="919" type="line"/>
      <point x="225" y="169" type="line"/>
      <point x="975" y="169" type="line"/>
      <point x="975" y="919" type="line"/>
    </contour>
    <contour>
      <point x="675.213" y="1016" type="line"/>
      <point x="825.213" y="1016" type="line"/>
      <point x="825.213" y="72" type="line"/>
      <point x="675.213" y="72" type="line"/>
    </contour>
    <contour>
      <point x="375.213" y="1016" type="line"/>
      <point x="525.213" y="1016" type="line"/>
      <point x="525.213" y="72" type="line"/>
      <point x="375.213" y="72" type="line"/>
    </contour>
    <contour>
      <point x="128.213" y="619" type="line"/>
      <point x="128.213" y="769" type="line"/>
      <point x="1072.21" y="769" type="line"/>
      <point x="1072.21" y="619" type="line"/>
    </contour>
    <contour>
      <point x="128.213" y="319" type="line"/>
      <point x="128.213" y="469" type="line"/>
      <point x="1072.21" y="469" type="line"/>
      <point x="1072.21" y="319" type="line"/>
    </contour>
  </outline>
</glyph>
<glyph name="uni25A8" format="1">
  <advance width="1200"/>
  <unicode hex="25A8"/>
  <outline>
    <contour>
      <point x="75" y="1069" type="line"/>
      <point x="1125" y="1069" type="line"/>
      <point x="1125" y="19" type="line"/>
      <point x="75" y="19" type="line"/>
    </contour>
    <contour>
      <point x="225" y="919" type="line"/>
      <point x="225" y="169" type="line"/>
      <point x="975" y="169" type="line"/>
      <point x="975" y="919" type="line"/>
    </contour>
    <contour>
      <point x="150" y="94" type="line"/>
      <point x="150" y="205" type="line"/>
      <point x="939" y="994" type="line"/>
      <point x="1050" y="994" type="line"/>
      <point x="1050" y="893" type="line"/>
      <point x="251" y="94" type="line"/>
    </contour>
    <contour>
      <point x="170" y="423" type="line"/>
      <point x="170" y="635" type="line"/>
      <point x="509" y="974" type="line"/>
      <point x="721" y="974" type="line"/>
    </contour>
    <contour>
      <point x="681" y="114" type="line"/>
      <point x="469" y="114" type="line"/>
      <point x="1030" y="675" type="line"/>
      <point x="1030" y="463" type="line"/>
    </contour>
  </outline>
</glyph>
<glyph name="H18551" format="1">
  <advance width="1200"/>
  <unicode hex="25AB"/>
  <outline>
    <contour>
      <point x="300" y="844" type="line"/>
      <point x="900" y="844" type="line"/>
      <point x="900" y="244" type="line"/>
      <point x="300" y="244" type="line"/>
    </contour>
    <contour>
      <point x="450" y="694" type="line"/>
      <point x="450" y="394" type="line"/>
      <point x="750" y="394" type="line"/>
      <point x="750" y="694" type="line"/>
    </contour>
  </outline>
</glyph>
<glyph name="uni25AD" format="1">
  <advance width="1200"/>
  <unicode hex="25AD"/>
  <outline>
    <contour>
      <point x="-0" y="844" type="line"/>
      <point x="1200" y="844" type="line"/>
      <point x="1200" y="244" type="line"/>
      <point x="-0" y="244" type="line"/>
    </contour>
    <contour>
      <point x="150" y="694" type="line"/>
      <point x="150" y="394" type="line"/>
      <point x="1050" y="394" type="line"/>
      <point x="1050" y="694" type="line"/>
    </contour>
  </outline>
</glyph>
<glyph name="uni25AF" format="1">
  <advance width="1200"/>
  <unicode hex="25AF"/>
  <outline>
    <contour>
      <point x="300" y="1144" type="line"/>
      <point x="900" y="1144" type="line"/>
      <point x="900" y="-56" type="line"/>
      <point x="300" y="-56" type="line"/>
    </contour>
    <contour>
      <point x="450" y="994" type="line"/>
      <point x="450" y="94" type="line"/>
      <point x="750" y="94" type="line"/>
      <point x="750" y="994" type="line"/>
    </contour>
  </outline>
</glyph>
<glyph name="uni25B3" format="1">
  <advance width="1200"/>
  <unicode hex="25B3"/>
  <outline>
    <contour>
      <point x="600" y="1084" type="line"/>
      <point x="1200" y="64" type="line"/>
      <point x="-0" y="64" type="line"/>
    </contour>
    <contour>
      <point x="600" y="788.154" type="line"/>
      <point x="262.262" y="214" type="line"/>
      <point x="937.738" y="214" type="line"/>
    </contour>
  </outline>
</glyph>
<glyph name="triagrt" format="1">
  <advance width="1200"/>
  <unicode hex="25BA"/>
  <outline>
    <contour>
      <point x="1140" y="544" type="line"/>
      <point x="120" y="184" type="line"/>
      <point x="120" y="904" type="line"/>
    </contour>
  </outline>
</glyph>
<glyph name="uni25BB" format="1">
  <advance width="1200"/>
  <unicode hex="25BB"/>
  <outline>
    <contour>
      <point x="1140" y="544" type="line"/>
      <point x="120" y="184" type="line"/>
      <point x="120" y="904" type="line"/>
    </contour>
    <contour>
      <point x="769" y="544" type="line"/>
      <point x="270" y="691.99" type="line"/>
      <point x="270" y="396.01" type="line"/>
    </contour>
  </outline>
</glyph>
<glyph name="triagdn" format="1">
  <advance width="1200"/>
  <unicode hex="25BC"/>
  <outline>
    <contour>
      <point x="600" y="4" type="line"/>
      <point x="0" y="1024" type="line"/>
      <point x="1200" y="1024" type="line"/>
    </contour>
  </outline>
</glyph>
<glyph name="uni25C1" format="1">
  <advance width="1200" height="1568"/>
  <unicode hex="25C1"/>
  <outline>
    <contour>
      <point x="60" y="544" type="line"/>
      <point x="1080" y="1144" type="line"/>
      <point x="1080" y="-56" type="line"/>
    </contour>
    <contour>
      <point x="355.846" y="544" type="line"/>
      <point x="930" y="206.262" type="line"/>
      <point x="930" y="881.738" type="line"/>
    </contour>
  </outline>
</glyph>
<glyph name="uni25C3" format="1">
  <advance width="1200"/>
  <unicode hex="25C3"/>
  <outline>
    <contour>
      <point x="503.769" y="544" type="line"/>
      <point x="855" y="337.394" type="line"/>
      <point x="855" y="750.606" type="line"/>
    </contour>
    <contour>
      <point x="207.923" y="544" type="line"/>
      <point x="1005" y="1012.87" type="line"/>
      <point x="1005" y="75.1313" type="line"/>
    </contour>
  </outline>
</glyph>
<glyph name="uni25C7" format="1">
  <advance width="1200"/>
  <unicode hex="25C7"/>
  <outline>
    <contour>
      <point x="600" y="1144" type="line"/>
      <point x="1200" y="544" type="line"/>
      <point x="600" y="-56" type="line"/>
      <point x="0" y="544" type="line"/>
    </contour>
    <contour>
      <point x="600" y="931.868" type="line"/>
      <point x="212.132" y="544" type="line"/>
      <point x="600" y="156.132" type="line"/>
      <point x="987.868" y="544" type="line"/>
    </contour>
  </outline>
</glyph>
<glyph name="uni25C9" format="1">
  <advance width="1200"/>
  <unicode hex="25C9"/>
  <outline>
    <contour>
      <point x="75" y="544" type="curve" smooth="yes"/>
      <point x="75" y="833.625"/>
      <point x="310.375" y="1069"/>
      <point x="600" y="1069" type="curve" smooth="yes"/>
      <point x="889.625" y="1069"/>
      <point x="1125" y="833.625"/>
      <point x="1125" y="544" type="curve" smooth="yes"/>
      <point x="1125" y="254.375"/>
      <point x="889.625" y="19"/>
      <point x="600" y="19" type="curve" smooth="yes"/>
      <point x="310.375" y="19"/>
      <point x="75" y="254.375"/>
    </contour>
    <contour>
      <point x="225" y="544" type="curve" smooth="yes"/>
      <point x="225" y="337.125"/>
      <point x="393.125" y="169"/>
      <point x="600" y="169" type="curve" smooth="yes"/>
      <point x="806.875" y="169"/>
      <point x="975" y="337.125"/>
      <point x="975" y="544" type="curve" smooth="yes"/>
      <point x="975" y="750.875"/>
      <point x="806.875" y="919"/>
      <point x="600" y="919" type="curve" smooth="yes"/>
      <point x="393.125" y="919"/>
      <point x="225" y="750.875"/>
    </contour>
    <contour>
      <point x="375" y="544" type="curve" smooth="yes"/>
      <point x="375" y="668.125"/>
      <point x="475.875" y="769"/>
      <point x="600" y="769" type="curve" smooth="yes"/>
      <point x="724.125" y="769"/>
      <point x="825" y="668.125"/>
      <point x="825" y="544" type="curve" smooth="yes"/>
      <point x="825" y="419.875"/>
      <point x="724.125" y="319"/>
      <point x="600" y="319" type="curve" smooth="yes"/>
      <point x="475.875" y="319"/>
      <point x="375" y="419.875"/>
    </contour>
  </outline>
</glyph>
<glyph name="lozenge" format="1">
  <advance width="1200"/>
  <unicode hex="25CA"/>
  <outline>
    <contour>
      <point x="600" y="1144" type="line"/>
      <point x="960" y="544" type="line"/>
      <point x="600" y="-56" type="line"/>
      <point x="240" y="544" type="line"/>
    </contour>
    <contour>
      <point x="600" y="852.452" type="line"/>
      <point x="414.929" y="544" type="line"/>
      <point x="600" y="235.548" type="line"/>
      <point x="785.071" y="544" type="line"/>
    </contour>
  </outline>
</glyph>
<glyph name="uni25CE" format="1">
  <advance width="1200"/>
  <unicode hex="25CE"/>
  <outline>
    <contour>
      <point x="0" y="544" type="curve" smooth="yes"/>
      <point x="0" y="875"/>
      <point x="269" y="1144"/>
      <point x="600" y="1144" type="curve" smooth="yes"/>
      <point x="931" y="1144"/>
      <point x="1200" y="875"/>
      <point x="1200" y="544" type="curve" smooth="yes"/>
      <point x="1200" y="213"/>
      <point x="931" y="-56"/>
      <point x="600" y="-56" type="curve" smooth="yes"/>
      <point x="269" y="-56"/>
      <point x="0" y="213"/>
    </contour>
    <contour>
      <point x="150" y="544" type="curve" smooth="yes"/>
      <point x="150" y="295.75"/>
      <point x="351.75" y="94"/>
      <point x="600" y="94" type="curve" smooth="yes"/>
      <point x="848.25" y="94"/>
      <point x="1050" y="295.75"/>
      <point x="1050" y="544" type="curve" smooth="yes"/>
      <point x="1050" y="792.25"/>
      <point x="848.25" y="994"/>
      <point x="600" y="994" type="curve" smooth="yes"/>
      <point x="351.75" y="994"/>
      <point x="150" y="792.25"/>
    </contour>
    <contour>
      <point x="300" y="544" type="curve" smooth="yes"/>
      <point x="300" y="709.5"/>
      <point x="434.5" y="844"/>
      <point x="600" y="844" type="curve" smooth="yes"/>
      <point x="765.5" y="844"/>
      <point x="900" y="709.5"/>
      <point x="900" y="544" type="curve" smooth="yes"/>
      <point x="900" y="378.5"/>
      <point x="765.5" y="244"/>
      <point x="600" y="244" type="curve" smooth="yes"/>
      <point x="434.5" y="244"/>
      <point x="300" y="378.5"/>
    </contour>
    <contour>
      <point x="450" y="544" type="curve" smooth="yes"/>
      <point x="450" y="461.25"/>
      <point x="517.25" y="394"/>
      <point x="600" y="394" type="curve" smooth="yes"/>
      <point x="682.75" y="394"/>
      <point x="750" y="461.25"/>
      <point x="750" y="544" type="curve" smooth="yes"/>
      <point x="750" y="626.75"/>
      <point x="682.75" y="694"/>
      <point x="600" y="694" type="curve" smooth="yes"/>
      <point x="517.25" y="694"/>
      <point x="450" y="626.75"/>
    </contour>
  </outline>
</glyph>
<glyph name="H18533" format="1">
  <advance width="1200"/>
  <unicode hex="25CF"/>
  <outline>
    <contour>
      <point x="75" y="544" type="curve" smooth="yes"/>
      <point x="75" y="833.625"/>
      <point x="310.375" y="1069"/>
      <point x="600" y="1069" type="curve" smooth="yes"/>
      <point x="889.625" y="1069"/>
      <point x="1125" y="833.625"/>
      <point x="1125" y="544" type="curve" smooth="yes"/>
      <point x="1125" y="254.375"/>
      <point x="889.625" y="19"/>
      <point x="600" y="19" type="curve" smooth="yes"/>
      <point x="310.375" y="19"/>
      <point x="75" y="254.375"/>
    </contour>
  </outline>
</glyph>
<glyph name="uni25D1" format="1">
  <advance width="1200"/>
  <unicode hex="25D1"/>
  <outline>
    <contour>
      <point x="600" y="169" type="curve"/>
      <point x="600" y="919" type="line"/>
      <point x="393.125" y="919"/>
      <point x="225" y="750.875"/>
      <point x="225" y="544" type="curve" smooth="yes"/>
      <point x="225" y="337.125"/>
      <point x="393.125" y="169"/>
    </contour>
    <contour>
      <point x="75" y="544" type="curve" smooth="yes"/>
      <point x="75" y="833.625"/>
      <point x="310.375" y="1069"/>
      <point x="600" y="1069" type="curve" smooth="yes"/>
      <point x="889.625" y="1069"/>
      <point x="1125" y="833.625"/>
      <point x="1125" y="544" type="curve" smooth="yes"/>
      <point x="1125" y="254.375"/>
      <point x="889.625" y="19"/>
      <point x="600" y="19" type="curve" smooth="yes"/>
      <point x="310.375" y="19"/>
      <point x="75" y="254.375"/>
    </contour>
  </outline>
</glyph>
<glyph name="uni25D6" format="1">
  <advance width="1200"/>
  <unicode hex="25D6"/>
  <outline>
    <contour>
      <point x="75" y="544" type="curve" smooth="yes"/>
      <point x="75" y="833.625"/>
      <point x="310.375" y="1069"/>
      <point x="600" y="1069" type="curve"/>
      <point x="600" y="19" type="line"/>
      <point x="310.375" y="19"/>
      <point x="75" y="254.375"/>
    </contour>
  </outline>
</glyph>
<glyph name="uni25D7" format="1">
  <advance width="1200"/>
  <unicode hex="25D7"/>
  <outline>
    <contour>
      <point x="600" y="1069" type="line"/>
      <point x="889.625" y="1069"/>
      <point x="1125" y="833.625"/>
      <point x="1125" y="544" type="curve" smooth="yes"/>
      <point x="1125" y="254.375"/>
      <point x="889.625" y="19"/>
      <point x="600" y="19" type="curve"/>
    </contour>
  </outline>
</glyph>
<glyph name="uni25E5" format="1">
  <advance width="1200"/>
  <unicode hex="25E5"/>
  <outline>
    <contour>
      <point x="75" y="1069" type="line"/>
      <point x="1125" y="1069" type="line"/>
      <point x="1125" y="19" type="line"/>
    </contour>
  </outline>
</glyph>
<glyph name="openbullet" format="1">
  <advance width="1200"/>
  <unicode hex="25E6"/>
  <outline>
    <contour>
      <point x="600" y="234" type="curve" smooth="yes"/>
      <point x="436" y="234"/>
      <point x="304" y="366"/>
      <point x="304" y="530" type="curve" smooth="yes"/>
      <point x="304" y="694"/>
      <point x="436" y="826"/>
      <point x="600" y="826" type="curve" smooth="yes"/>
      <point x="764" y="826"/>
      <point x="896" y="694"/>
      <point x="896" y="530" type="curve" smooth="yes"/>
      <point x="896" y="366"/>
      <point x="764" y="234"/>
    </contour>
    <contour>
      <point x="600" y="384" type="curve" smooth="yes"/>
      <point x="680.892" y="384"/>
      <point x="746" y="449.108"/>
      <point x="746" y="530" type="curve" smooth="yes"/>
      <point x="746" y="610.892"/>
      <point x="680.892" y="676"/>
      <point x="600" y="676" type="curve" smooth="yes"/>
      <point x="519.108" y="676"/>
      <point x="454" y="610.892"/>
      <point x="454" y="530" type="curve" smooth="yes"/>
      <point x="454" y="449.108"/>
      <point x="519.108" y="384"/>
    </contour>
  </outline>
</glyph>
<glyph name="uni25E9" format="1">
  <advance width="1200"/>
  <unicode hex="25E9"/>
  <outline>
    <contour>
      <point x="75" y="1069" type="line"/>
      <point x="1125" y="1069" type="line"/>
      <point x="1125" y="19" type="line"/>
      <point x="75" y="19" type="line"/>
    </contour>
    <contour>
      <point x="225" y="169" type="line"/>
      <point x="975" y="169" type="line"/>
      <point x="975" y="919" type="line"/>
    </contour>
  </outline>
</glyph>
<glyph name="uni25EF" format="1">
  <advance width="1200"/>
  <unicode hex="25EF"/>
  <outline>
    <contour>
      <point x="-0" y="544" type="curve" smooth="yes"/>
      <point x="-0" y="875"/>
      <point x="269" y="1144"/>
      <point x="600" y="1144" type="curve" smooth="yes"/>
      <point x="931" y="1144"/>
      <point x="1200" y="875"/>
      <point x="1200" y="544" type="curve" smooth="yes"/>
      <point x="1200" y="213"/>
      <point x="931" y="-56"/>
      <point x="600" y="-56" type="curve" smooth="yes"/>
      <point x="269" y="-56"/>
      <point x="-0" y="213"/>
    </contour>
    <contour>
      <point x="150" y="544" type="curve" smooth="yes"/>
      <point x="150" y="295.75"/>
      <point x="351.75" y="94"/>
      <point x="600" y="94" type="curve" smooth="yes"/>
      <point x="848.25" y="94"/>
      <point x="1050" y="295.75"/>
      <point x="1050" y="544" type="curve" smooth="yes"/>
      <point x="1050" y="792.25"/>
      <point x="848.25" y="994"/>
      <point x="600" y="994" type="curve" smooth="yes"/>
      <point x="351.75" y="994"/>
      <point x="150" y="792.25"/>
    </contour>
  </outline>
</glyph>
<glyph name="uni25F4" format="1">
  <advance width="1200"/>
  <unicode hex="25F4"/>
  <outline>
    <contour>
      <point x="75" y="544" type="curve" smooth="yes"/>
      <point x="75" y="833.625"/>
      <point x="310.375" y="1069"/>
      <point x="600" y="1069" type="curve" smooth="yes"/>
      <point x="889.625" y="1069"/>
      <point x="1125" y="833.625"/>
      <point x="1125" y="544" type="curve" smooth="yes"/>
      <point x="1125" y="254.375"/>
      <point x="889.625" y="19"/>
      <point x="600" y="19" type="curve" smooth="yes"/>
      <point x="310.375" y="19"/>
      <point x="75" y="254.375"/>
    </contour>
    <contour>
      <point x="225" y="544" type="curve" smooth="yes"/>
      <point x="225" y="337.125"/>
      <point x="393.125" y="169"/>
      <point x="600" y="169" type="curve" smooth="yes"/>
      <point x="806.875" y="169"/>
      <point x="975" y="337.125"/>
      <point x="975" y="544" type="curve" smooth="yes"/>
      <point x="975" y="750.875"/>
      <point x="806.875" y="919"/>
      <point x="600" y="919" type="curve" smooth="yes"/>
      <point x="393.125" y="919"/>
      <point x="225" y="750.875"/>
    </contour>
    <contour>
      <point x="525" y="1016" type="line"/>
      <point x="675" y="1016" type="line"/>
      <point x="675" y="469" type="line"/>
      <point x="525" y="569" type="line"/>
    </contour>
    <contour>
      <point x="128" y="469" type="line"/>
      <point x="128" y="619" type="line"/>
      <point x="565" y="619" type="line"/>
      <point x="675" y="469" type="line"/>
    </contour>
  </outline>
</glyph>
<glyph name="uni25FB" format="1">
  <advance width="1200" height="1568"/>
  <unicode hex="25FB"/>
  <outline>
    <contour>
      <point x="150" y="994" type="line"/>
      <point x="1050" y="994" type="line"/>
      <point x="1050" y="94" type="line"/>
      <point x="150" y="94" type="line"/>
    </contour>
    <contour>
      <point x="300" y="844" type="line"/>
      <point x="300" y="244" type="line"/>
      <point x="900" y="244" type="line"/>
      <point x="900" y="844" type="line"/>
    </contour>
  </outline>
</glyph>
<glyph name="uni2B1C" format="1">
  <advance width="1200"/>
  <unicode hex="2B1C"/>
  <outline>
    <contour>
      <point x="-0" y="1144" type="line"/>
      <point x="1200" y="1144" type="line"/>
      <point x="1200" y="-56" type="line"/>
      <point x="-0" y="-56" type="line"/>
    </contour>
    <contour>
      <point x="150" y="994" type="line"/>
      <point x="150" y="94" type="line"/>
      <point x="1050" y="94" type="line"/>
      <point x="1050" y="994" type="line"/>
    </contour>
  </outline>
</glyph>
<glyph name="uni2B1D" format="1">
  <advance width="1200"/>
  <unicode hex="2B1D"/>
  <outline>
    <contour>
      <point x="375" y="769" type="line"/>
      <point x="825" y="769" type="line"/>
      <point x="825" y="319" type="line"/>
      <point x="375" y="319" type="line"/>
    </contour>
  </outline>
</glyph>
<glyph name="uni2B1F" format="1">
  <advance width="1200"/>
  <unicode hex="2B1F"/>
  <outline>
    <contour>
      <point x="600" y="1144" type="line"/>
      <point x="1200" y="708" type="line"/>
      <point x="970" y="2" type="line"/>
      <point x="230" y="2" type="line"/>
      <point x="0" y="708" type="line"/>
    </contour>
  </outline>
</glyph>
<glyph name="uni2B20" format="1">
  <advance width="1200"/>
  <unicode hex="2B20"/>
  <outline>
    <contour>
      <point x="600" y="1144" type="line"/>
      <point x="1200" y="708" type="line"/>
      <point x="970" y="2" type="line"/>
      <point x="230" y="2" type="line"/>
      <point x="0" y="708" type="line"/>
    </contour>
    <contour>
      <point x="600" y="958.579" type="line"/>
      <point x="176.405" y="650.766" type="line"/>
      <point x="338.892" y="152" type="line"/>
      <point x="861.108" y="152" type="line"/>
      <point x="1023.6" y="650.766" type="line"/>
    </contour>
  </outline>
</glyph>
<glyph name="uni2B25" format="1">
  <advance width="1200"/>
  <unicode hex="2B25"/>
  <outline>
    <contour>
      <point x="600" y="931.868" type="line"/>
      <point x="987.868" y="544" type="line"/>
      <point x="600" y="156.132" type="line"/>
      <point x="212.132" y="544" type="line"/>
    </contour>
  </outline>
</glyph>
<glyph name="uni2B2C" format="1">
  <advance width="1200"/>
  <unicode hex="2B2C"/>
  <outline>
    <contour>
      <point x="75" y="544" type="curve" smooth="yes"/>
      <point x="75" y="717.775"/>
      <point x="310.375" y="859"/>
      <point x="600" y="859" type="curve" smooth="yes"/>
      <point x="889.625" y="859"/>
      <point x="1125" y="717.775"/>
      <point x="1125" y="544" type="curve" smooth="yes"/>
      <point x="1125" y="370.225"/>
      <point x="889.625" y="229"/>
      <point x="600" y="229" type="curve" smooth="yes"/>
      <point x="310.375" y="229"/>
      <point x="75" y="370.225"/>
    </contour>
  </outline>
</glyph>
<glyph name="uni2B2D" format="1">
  <advance width="1200"/>
  <unicode hex="2B2D"/>
  <outline>
    <contour>
      <point x="75" y="544" type="curve" smooth="yes"/>
      <point x="75" y="717.775"/>
      <point x="310.375" y="859"/>
      <point x="600" y="859" type="curve" smooth="yes"/>
      <point x="889.625" y="859"/>
      <point x="1125" y="717.775"/>
      <point x="1125" y="544" type="curve" smooth="yes"/>
      <point x="1125" y="370.225"/>
      <point x="889.625" y="229"/>
      <point x="600" y="229" type="curve" smooth="yes"/>
      <point x="310.375" y="229"/>
      <point x="75" y="370.225"/>
    </contour>
    <contour>
      <point x="225" y="544" type="curve" smooth="yes"/>
      <point x="225" y="452.975"/>
      <point x="393.125" y="379"/>
      <point x="600" y="379" type="curve" smooth="yes"/>
      <point x="806.875" y="379"/>
      <point x="975" y="452.975"/>
      <point x="975" y="544" type="curve" smooth="yes"/>
      <point x="975" y="635.025"/>
      <point x="806.875" y="709"/>
      <point x="600" y="709" type="curve" smooth="yes"/>
      <point x="393.125" y="709"/>
      <point x="225" y="635.025"/>
    </contour>
  </outline>
</glyph>
<glyph name="uni2BC5" format="1">
  <advance width="1200" height="1568"/>
  <unicode hex="2BC5"/>
  <outline>
    <contour>
      <point x="600" y="788.154" type="line"/>
      <point x="937.738" y="214" type="line"/>
      <point x="262.262" y="214" type="line"/>
    </contour>
  </outline>
</glyph>
<glyph name="uni2BC7" format="1">
  <advance width="1200" height="1568"/>
  <unicode hex="2BC7"/>
  <outline>
    <contour>
      <point x="355.846" y="544" type="line"/>
      <point x="930" y="881.738" type="line"/>
      <point x="930" y="206.262" type="line"/>
    </contour>
  </outline>
</glyph>
<glyph name="uni2BCA" format="1">
  <advance width="1200" height="1568"/>
  <unicode hex="2BCA"/>
  <outline>
    <contour>
      <point x="75" y="544" type="line"/>
      <point x="75" y="833.625"/>
      <point x="310.375" y="1069"/>
      <point x="600" y="1069" type="curve" smooth="yes"/>
      <point x="889.625" y="1069"/>
      <point x="1125" y="833.625"/>
      <point x="1125" y="544" type="curve"/>
    </contour>
  </outline>
</glyph>
<glyph name="uni2BCB" format="1">
  <advance width="1200" height="1568"/>
  <unicode hex="2BCB"/>
  <outline>
    <contour>
      <point x="75" y="544" type="curve"/>
      <point x="1125" y="544" type="line"/>
      <point x="1125" y="254.375"/>
      <point x="889.625" y="19"/>
      <point x="600" y="19" type="curve" smooth="yes"/>
      <point x="310.375" y="19"/>
      <point x="75" y="254.375"/>
    </contour>
  </outline>
</glyph>
